<?xml version="1.0" encoding="UTF-8"?>
<svg id="Layer_1" xmlns="http://www.w3.org/2000/svg" version="1.1" viewBox="0 0 792 612">
  <!-- Generator: Adobe Illustrator 29.8.2, SVG Export Plug-In . SVG Version: 2.1.1 Build 3)  -->
  <defs>
    <style>
      .st0 {
        fill: #5a99f5;
      }

      .st1 {
        fill: #161a2b;
      }
    </style>
  </defs>
  <rect class="st1" y="-.23" width="396.32" height="612.46"/>
  <g>
    <g>
      <path class="st0" d="M604.81,129.6l-5.66,9.99c-4.03,6.85-9.49,12.71-21.52,12.71h-47.9l-15.32,27.99h77.02c14.69,0,28.2-8.39,35.15-21.84l14.77-28.59-36.54-.26Z"/>
      <path class="st0" d="M578.23,131.94l6.22-10.86c4.47-7.6,12.22-11.41,19.79-11.41h47.53l14.79-28.63h-75.22c-13.98,0-26.88,7.8-33.79,20.42l-16.69,30.48h37.35Z"/>
    </g>
    <path class="st0" d="M484.5,231.78c-6.31,0-10.52-3.18-10.7-3.31l2.01-2.62s3.55,2.63,8.69,2.63c4.05,0,6.37-1.38,6.37-3.78,0-1.08,0-3.1-6.23-4.06-6.69-1.03-9.42-3.19-9.42-7.45,0-3.77,3.88-6.3,9.67-6.3,5.15,0,8.45,1.95,8.59,2.02l-1.48,2.95s-2.79-1.67-7.11-1.67c-3.75,0-6.37,1.24-6.37,3.01,0,1.41,0,3.17,6.62,4.19,3.88.6,9.03,2,9.03,7.32,0,3.42-2.54,7.08-9.67,7.08ZM644.66,224.7c0-5.32-5.15-6.72-9.03-7.32-6.62-1.02-6.62-2.78-6.62-4.19,0-1.77,2.62-3.01,6.37-3.01,4.32,0,6.96,1.75,6.99,1.77l1.48-2.95c-.14-.07-3.32-2.11-8.47-2.11-5.78,0-9.67,2.53-9.67,6.3,0,4.26,2.73,6.42,9.42,7.45,6.23.96,6.23,2.98,6.23,4.06,0,2.4-2.32,3.78-6.37,3.78-5.15,0-8.66-2.61-8.69-2.63l-2.01,2.62c.18.14,4.39,3.31,10.7,3.31,7.13,0,9.67-3.66,9.67-7.08ZM556.82,206.86h-3.3v23.97h3.3v-23.97ZM661.17,228.26c-1.92.43-2.47.56-4.04.56-.91,0-1.69-.49-2.16-.98-.82-.85-.94-2.36-.92-2.86v-8.32h6.38v-2.4h-6.38v-4.8s-3.3,0-3.3,0v4.8h-3.74v2.4h3.74v8.2c-.02.51-.03,3.3,1.82,5.25,1.1,1.15,2.61,1.67,4.43,1.67,2.26,0,3.88-.73,4.18-.81v-2.7ZM502.64,214.16h-3.3v16.67h3.3v-16.67ZM502.64,206.92h-3.3v3.3h3.3v-3.3ZM566.26,214.16h-3.3v16.67h3.3v-16.67ZM566.26,206.92h-3.3v3.3h3.3v-3.3ZM525.53,206.86v23.97h-3.3v-1.4c-1.59,1.39-3.66,2.25-5.93,2.25-4.98,0-9.03-4.06-9.03-9.06s4.05-9.06,9.03-9.06c2.27,0,4.34.85,5.93,2.25v-8.93h3.3ZM522.23,225.29v-5.36c-1.02-1.92-3.1-3.24-5.5-3.24-3.4,0-6.17,2.66-6.17,5.92s2.77,5.92,6.17,5.92c2.4,0,4.48-1.32,5.5-3.24ZM547.79,230.19l-.58-3.15c-2.51.93-3.32,1.62-7.33,1.62-2.79,0-5.37-1.68-5.84-4.76h14.69v-1.27c0-5.62-3.48-9.11-9.08-9.11s-9.46,3.75-9.46,9.11c0,5.02,4.25,9.11,9.46,9.11,2.81,0,4.86-.5,8.13-1.55ZM545.23,221.33h-11.19c.17-3.08,2.86-4.86,5.64-4.86,3.1,0,5.31,1.37,5.54,4.86ZM611.65,230.19l-.58-3.15c-2.51.93-3.32,1.62-7.33,1.62-2.79,0-5.37-1.68-5.84-4.76h14.69v-1.27c0-5.62-3.48-9.11-9.08-9.11s-9.46,3.75-9.46,9.11c0,5.02,4.25,9.11,9.46,9.11,2.81,0,4.86-.5,8.13-1.55ZM609.08,221.33h-11.19c.17-3.08,2.86-4.86,5.64-4.86,3.1,0,5.31,1.37,5.54,4.86ZM589.73,218.89c-.52-3.21-2.75-5.14-6.56-5.14h-2.22c-2.29,0-4.08,1.19-5.37,2.92v-2.5h-3.3v16.67h3.3v-8.56c0-4.82,4.78-5.47,5.8-5.47h1.21c1.65,0,3.92,1.48,3.92,3.99v10.05h3.3l.06-10.4c0-.37-.12-1.55-.12-1.55ZM680.83,218.93v11.89h-3.3v-1.51c-2.03,1.58-4.27,2.46-6.29,2.46-.06,0-.15,0-.24,0-.15,0-.3,0-.44,0-5.17,0-6.47-2.75-6.65-5.1-.12-1.61.41-3.01,1.39-4.16,1.81-2.12,5.86-1.82,6.59-1.82h5.64v-1.78c0-.47-.38-.95-.47-1.05-.05-.05-1.25-1.21-4.56-1.21-4.08,0-5.85,1.53-5.88,1.55l-1.7-2.83c.14-.08,3.39-2.02,7.58-2.02s6.24,1.52,6.89,2.17c.24.24,1.44,1.53,1.44,3.38ZM677.53,225.9v-2.5h-5.64c-1.4,0-3.3.43-4.17,1.37-.41.44-.57.97-.52,1.67.1,1.32,1.26,2.51,4.21,2.42.13,0,.25,0,.34,0,.65,0,3.05-.04,5.78-2.96ZM690.09,216.72v-2.56h-3.3v16.67h3.3v-10.62c2.35-3,4.05-3.3,7.89-3.3v-3.3c-3.32,0-5.41.44-7.89,3.11Z"/>
  </g>
  <g>
    <g>
      <path class="st0" d="M217.08,129.6l-5.66,9.99c-4.03,6.85-9.49,12.71-21.52,12.71h-47.9l-15.32,27.99h77.02c14.69,0,28.2-8.39,35.15-21.84l14.77-28.59-36.54-.26Z"/>
      <path class="st0" d="M190.5,131.94l6.22-10.86c4.47-7.6,12.22-11.41,19.79-11.41h47.53l14.79-28.63h-75.22c-13.98,0-26.88,7.8-33.79,20.42l-16.69,30.48h37.35Z"/>
    </g>
    <path class="st0" d="M96.77,231.78c-6.31,0-10.52-3.18-10.7-3.31l2.01-2.62s3.55,2.63,8.69,2.63c4.05,0,6.37-1.38,6.37-3.78,0-1.08,0-3.1-6.23-4.06-6.69-1.03-9.42-3.19-9.42-7.45,0-3.77,3.88-6.3,9.67-6.3,5.15,0,8.45,1.95,8.59,2.02l-1.48,2.95s-2.79-1.67-7.11-1.67c-3.75,0-6.37,1.24-6.37,3.01,0,1.41,0,3.17,6.62,4.19,3.88.6,9.03,2,9.03,7.32,0,3.42-2.54,7.08-9.67,7.08ZM256.94,224.7c0-5.32-5.15-6.72-9.03-7.32-6.62-1.02-6.62-2.78-6.62-4.19,0-1.77,2.62-3.01,6.37-3.01,4.32,0,6.96,1.75,6.99,1.77l1.48-2.95c-.14-.07-3.32-2.11-8.47-2.11-5.78,0-9.67,2.53-9.67,6.3,0,4.26,2.73,6.42,9.42,7.45,6.23.96,6.23,2.98,6.23,4.06,0,2.4-2.32,3.78-6.37,3.78-5.15,0-8.66-2.61-8.69-2.63l-2.01,2.62c.18.14,4.39,3.31,10.7,3.31,7.13,0,9.67-3.66,9.67-7.08ZM169.09,206.86h-3.3v23.97h3.3v-23.97ZM273.44,228.26c-1.92.43-2.47.56-4.04.56-.91,0-1.69-.49-2.16-.98-.82-.85-.94-2.36-.92-2.86v-8.32h6.38v-2.4h-6.38v-4.8s-3.3,0-3.3,0v4.8h-3.74v2.4h3.74v8.2c-.02.51-.03,3.3,1.82,5.25,1.1,1.15,2.61,1.67,4.43,1.67,2.26,0,3.88-.73,4.18-.81v-2.7ZM114.91,214.16h-3.3v16.67h3.3v-16.67ZM114.91,206.92h-3.3v3.3h3.3v-3.3ZM178.53,214.16h-3.3v16.67h3.3v-16.67ZM178.53,206.92h-3.3v3.3h3.3v-3.3ZM137.8,206.86v23.97h-3.3v-1.4c-1.59,1.39-3.66,2.25-5.93,2.25-4.98,0-9.03-4.06-9.03-9.06s4.05-9.06,9.03-9.06c2.27,0,4.34.85,5.93,2.25v-8.93h3.3ZM134.5,225.29v-5.36c-1.02-1.92-3.1-3.24-5.5-3.24-3.4,0-6.17,2.66-6.17,5.92s2.77,5.92,6.17,5.92c2.4,0,4.48-1.32,5.5-3.24ZM160.06,230.19l-.58-3.15c-2.51.93-3.32,1.62-7.33,1.62-2.79,0-5.37-1.68-5.84-4.76h14.69v-1.27c0-5.62-3.48-9.11-9.08-9.11s-9.46,3.75-9.46,9.11c0,5.02,4.25,9.11,9.46,9.11,2.81,0,4.86-.5,8.13-1.55ZM157.5,221.33h-11.19c.17-3.08,2.86-4.86,5.64-4.86,3.1,0,5.31,1.37,5.54,4.86ZM223.92,230.19l-.58-3.15c-2.51.93-3.32,1.62-7.33,1.62-2.79,0-5.37-1.68-5.84-4.76h14.69v-1.27c0-5.62-3.48-9.11-9.08-9.11s-9.46,3.75-9.46,9.11c0,5.02,4.25,9.11,9.46,9.11,2.81,0,4.86-.5,8.13-1.55ZM221.35,221.33h-11.19c.17-3.08,2.86-4.86,5.64-4.86,3.1,0,5.31,1.37,5.54,4.86ZM202,218.89c-.52-3.21-2.75-5.14-6.56-5.14h-2.22c-2.29,0-4.08,1.19-5.37,2.92v-2.5h-3.3v16.67h3.3v-8.56c0-4.82,4.78-5.47,5.8-5.47h1.21c1.65,0,3.92,1.48,3.92,3.99v10.05h3.3l.06-10.4c0-.37-.12-1.55-.12-1.55ZM293.1,218.93v11.89h-3.3v-1.51c-2.03,1.58-4.27,2.46-6.29,2.46-.06,0-.15,0-.24,0-.15,0-.3,0-.44,0-5.17,0-6.47-2.75-6.65-5.1-.12-1.61.41-3.01,1.39-4.16,1.81-2.12,5.86-1.82,6.59-1.82h5.64v-1.78c0-.47-.38-.95-.47-1.05-.05-.05-1.25-1.21-4.56-1.21-4.08,0-5.85,1.53-5.88,1.55l-1.7-2.83c.14-.08,3.39-2.02,7.58-2.02s6.24,1.52,6.89,2.17c.24.24,1.44,1.53,1.44,3.38ZM289.8,225.9v-2.5h-5.64c-1.4,0-3.3.43-4.17,1.37-.41.44-.57.97-.52,1.67.1,1.32,1.26,2.51,4.21,2.42.13,0,.25,0,.34,0,.65,0,3.05-.04,5.78-2.96ZM302.36,216.72v-2.56h-3.3v16.67h3.3v-10.62c2.35-3,4.05-3.3,7.89-3.3v-3.3c-3.32,0-5.41.44-7.89,3.11Z"/>
  </g>
  <g>
    <path class="st0" d="M600.21,421.9l-5.66,9.99c-4.03,6.85-9.49,12.71-21.52,12.71h-47.9l-15.32,27.99h77.02c14.69,0,28.2-8.39,35.15-21.84l14.77-28.59-36.54-.26Z"/>
    <path class="st0" d="M573.63,424.24l6.22-10.86c4.47-7.6,12.22-11.41,19.79-11.41h47.53l14.79-28.63h-75.22c-13.98,0-26.88,7.8-33.79,20.42l-16.69,30.48h37.35Z"/>
  </g>
  <g>
    <path class="st0" d="M212.48,421.9l-5.66,9.99c-4.03,6.85-9.49,12.71-21.52,12.71h-47.9l-15.32,27.99h77.02c14.69,0,28.2-8.39,35.15-21.84l14.77-28.59-36.54-.26Z"/>
    <path class="st0" d="M185.9,424.24l6.22-10.86c4.47-7.6,12.22-11.41,19.79-11.41h47.53l14.79-28.63h-75.22c-13.98,0-26.88,7.8-33.79,20.42l-16.69,30.48h37.35Z"/>
  </g>
</svg>